<?xml version="1.0" standalone="no"?>
<!DOCTYPE svg PUBLIC "-//W3C//DTD SVG 20010904//EN"
 "http://www.w3.org/TR/2001/REC-SVG-20010904/DTD/svg10.dtd">
<svg version="1.0" xmlns="http://www.w3.org/2000/svg"
 width="256.000000pt" height="256.000000pt" viewBox="0 0 256.000000 256.000000"
 preserveAspectRatio="xMidYMid meet">
<metadata>
Created by potrace 1.11, written by Peter Selinger 2001-2013
</metadata>
<g transform="translate(0.000000,256.000000) scale(0.100000,-0.100000)"
fill="#000000" stroke="none">
<path d="M930 2553 c0 -5 -7 -44 -15 -89 -8 -44 -15 -115 -16 -157 l-3 -76
-70 -16 c-84 -20 -187 -65 -236 -104 -20 -16 -54 -38 -77 -50 -24 -11 -57 -34
-75 -49 -40 -34 -88 -49 -193 -58 -44 -4 -89 -11 -100 -15 -18 -8 22 -7 157 6
21 2 42 6 47 9 5 3 7 -3 4 -13 -3 -12 -17 -23 -35 -26 -45 -10 -96 -49 -139
-106 -30 -40 -42 -71 -59 -145 -12 -52 -26 -96 -31 -99 -13 -9 -47 -91 -66
-159 -20 -75 -29 -281 -12 -252 7 11 11 43 10 72 -2 57 44 236 77 300 l19 38
13 -25 c7 -13 24 -36 38 -51 l25 -27 -28 -54 c-34 -65 -30 -95 17 -118 190
-90 190 -90 162 -210 -28 -123 -26 -288 5 -351 17 -35 30 -48 51 -53 31 -7 89
1 132 17 14 5 35 8 45 6 13 -3 6 -11 -29 -31 -49 -30 -78 -57 -60 -57 6 0 14
5 17 10 4 6 33 24 66 40 32 17 58 35 56 41 -4 19 103 50 202 59 71 7 106 16
150 38 31 16 124 64 206 106 83 42 160 88 173 102 15 18 22 38 22 68 0 40 -5
47 -77 117 -43 41 -100 93 -128 114 -128 101 -182 161 -235 265 -36 70 -136
140 -201 140 -39 0 -87 -23 -130 -61 -39 -35 -84 -61 -92 -52 -3 3 3 18 15 33
22 30 35 111 24 154 -10 41 -102 116 -142 116 -8 0 -17 7 -21 16 -7 19 22 45
122 111 39 25 79 54 90 64 31 27 165 78 268 100 193 43 336 60 422 49 44 -6
108 -10 142 -10 115 0 398 -84 573 -170 86 -42 203 -108 230 -130 25 -20 25
-20 -27 -1 -29 11 -53 16 -53 13 1 -17 23 -34 127 -96 62 -37 115 -72 119 -77
3 -6 -2 -16 -11 -23 -15 -11 -11 -17 40 -59 31 -26 70 -64 87 -84 16 -21 32
-40 34 -42 2 -2 4 19 4 49 0 52 -1 54 -65 115 -69 67 -74 75 -50 75 94 0 -327
255 -571 346 -146 54 -175 63 -295 88 -107 22 -148 26 -299 25 -96 0 -211 -6
-255 -13 -44 -8 -83 -12 -87 -9 -15 8 -5 169 18 291 5 25 3 32 -10 32 -9 0
-16 -3 -16 -7z m-478 -683 c15 0 68 -53 83 -82 19 -39 19 -53 -1 -111 -23 -67
-65 -104 -149 -128 -38 -11 -89 -30 -113 -42 -167 -82 -177 239 -11 347 35 22
106 34 149 24 19 -4 38 -8 42 -8z m382 -234 c21 -15 51 -47 67 -70 16 -22 35
-48 42 -56 7 -8 28 -35 47 -60 19 -25 42 -53 50 -63 8 -10 56 -52 105 -92 188
-152 247 -223 199 -242 -42 -16 -177 26 -329 101 -191 95 -302 140 -418 171
-105 28 -294 50 -367 43 -28 -3 -50 -2 -50 2 0 10 39 60 65 84 29 27 131 71
199 85 71 16 141 44 152 63 6 9 10 6 14 -11 8 -36 27 -36 45 -1 12 22 13 35 6
44 -20 24 10 38 75 34 49 -3 69 -10 98 -32z m443 -632 c-3 -3 -12 -4 -19 -1
-8 3 -5 6 6 6 11 1 17 -2 13 -5z m-42 -14 c3 -5 -1 -10 -10 -10 -9 0 -13 5
-10 10 3 6 8 10 10 10 2 0 7 -4 10 -10z m-809 -230 c5 0 47 7 94 16 106 21
167 28 159 20 -10 -11 -153 -78 -174 -82 -11 -2 -32 -6 -47 -10 -43 -9 -65 4
-87 50 -33 67 -27 84 13 42 18 -20 37 -36 42 -36z m511 64 c-3 -3 -12 -4 -19
-1 -8 3 -5 6 6 6 11 1 17 -2 13 -5z"/>
<path d="M250 1760 c-24 -24 -26 -63 -4 -84 32 -32 77 -11 90 41 5 20 2 31
-16 45 -29 23 -45 23 -70 -2z"/>
<path d="M800 1577 c-26 -14 -47 -43 -38 -53 9 -9 91 20 95 33 7 20 -31 33
-57 20z"/>
<path d="M0 1920 c0 -12 47 -12 75 0 15 6 8 9 -27 9 -27 1 -48 -3 -48 -9z"/>
<path d="M1742 1650 c-117 -42 -208 -141 -221 -243 -19 -149 50 -270 192 -338
57 -27 68 -29 132 -23 83 8 145 37 196 91 40 43 73 92 66 99 -3 3 -14 -11 -26
-30 -29 -47 -85 -94 -138 -117 -57 -24 -174 -26 -228 -3 -59 24 -140 113 -161
176 -60 182 37 331 241 369 109 20 233 -42 291 -144 26 -47 29 -60 28 -145 0
-69 3 -88 10 -75 6 10 11 54 11 98 0 67 -5 88 -27 130 -44 84 -109 134 -206
159 -75 20 -94 19 -160 -4z"/>
<path d="M1774 1446 c-50 -22 -55 -75 -11 -123 42 -47 117 -16 117 48 0 20
-10 40 -29 60 -33 33 -35 33 -77 15z"/>
<path d="M502 574 c-12 -8 -27 -24 -33 -36 -8 -16 -1 -13 30 12 23 18 41 35
41 37 0 7 -17 2 -38 -13z"/>
<path d="M470 470 c-12 -16 -20 -35 -18 -42 2 -6 14 6 26 27 28 46 22 57 -8
15z"/>
<path d="M2 98 c3 -7 13 -17 24 -23 11 -5 36 -20 55 -32 20 -13 43 -23 52 -23
8 0 17 -5 19 -11 2 -6 19 -9 38 -7 33 4 29 7 -72 56 -116 56 -122 58 -116 40z"/>
</g>
</svg>
